<?xml version="1.0" encoding="UTF-8" standalone="no"?>
<svg
   xmlns:dc="http://purl.org/dc/elements/1.1/"
   xmlns:cc="http://creativecommons.org/ns#"
   xmlns:rdf="http://www.w3.org/1999/02/22-rdf-syntax-ns#"
   xmlns:svg="http://www.w3.org/2000/svg"
   xmlns="http://www.w3.org/2000/svg"
   xmlns:sodipodi="http://sodipodi.sourceforge.net/DTD/sodipodi-0.dtd"
   xmlns:inkscape="http://www.inkscape.org/namespaces/inkscape"
   height="200"
   viewBox="0 0 200 200"
   width="200"
   version="1.1"
   id="svg13"
   sodipodi:docname="bQ.svg"
   inkscape:version="0.92.5 (2060ec1f9f, 2020-04-08)">
  <metadata
     id="metadata19">
    <rdf:RDF>
      <cc:Work
         rdf:about="">
        <dc:format>image/svg+xml</dc:format>
        <dc:type
           rdf:resource="http://purl.org/dc/dcmitype/StillImage" />
      </cc:Work>
    </rdf:RDF>
  </metadata>
  <defs
     id="defs17" />
  <sodipodi:namedview
     pagecolor="#ffffff"
     bordercolor="#666666"
     borderopacity="1"
     objecttolerance="10"
     gridtolerance="10"
     guidetolerance="10"
     inkscape:pageopacity="0"
     inkscape:pageshadow="2"
     inkscape:window-width="1920"
     inkscape:window-height="966"
     id="namedview15"
     showgrid="false"
     inkscape:zoom="1.668772"
     inkscape:cx="-8.2704762"
     inkscape:cy="97.99474"
     inkscape:window-x="0"
     inkscape:window-y="27"
     inkscape:window-maximized="1"
     inkscape:current-layer="svg13" />
  <filter
     id="a"
     height="150%"
     width="150%">
    <feGaussianBlur
       in="SourceAlpha"
       result="blur"
       stdDeviation="3"
       id="feGaussianBlur2" />
    <feColorMatrix
       in="blur"
       result="blurAlpha"
       values="2 0 0 0 0 0 2 0 0 0 0 0 2 0 0 0 0 0 0.5 0"
       id="feColorMatrix4" />
    <feOffset
       dx="4.5"
       dy="4.5"
       in="blurAlpha"
       result="offsetBlur"
       id="feOffset6" />
    <feBlend
       in="SourceGraphic"
       in2="offsetBlur"
       id="feBlend8" />
  </filter>
  <path
     d="M 80,20 C 72.064243,21.578496 64.301579,24.793718 57.574,29.289 46.487693,36.696729 36.697744,46.487703 29.29,57.574 24.794638,64.301679 21.578672,72.064148 20,80 c -2.601415,13.077095 -2.601166,26.92286 0,40 1.578496,7.93576 4.793777,15.69838 9.289,22.426 7.407762,11.08657 17.198431,20.87724 28.285,28.285 6.727619,4.49522 14.490243,7.7105 22.426,9.289 13.077145,2.60117 26.92286,2.60117 40,0 7.93576,-1.5785 15.69838,-4.79378 22.426,-9.289 11.08657,-7.40776 20.87724,-17.19843 28.285,-28.285 4.49522,-6.72762 7.7105,-14.49024 9.289,-22.426 2.60117,-13.07714 2.60117,-26.922855 0,-40 -1.5785,-7.935757 -4.79378,-15.698381 -9.289,-22.426 C 163.30324,46.487431 153.51257,36.696762 142.426,29.289 135.69838,24.793777 127.93576,21.578496 120,20 106.92286,17.398834 93.077145,17.398834 80,20 Z m 20,58.033 c 12.13227,-5.52e-4 21.96755,9.834732 21.967,21.967 5.5e-4,12.13227 -9.83473,21.96755 -21.967,21.967 C 87.867732,121.96755 78.032448,112.13227 78.033,100 78.032448,87.867732 87.867732,78.032448 100,78.033 Z"
     id="path11"
     inkscape:connector-curvature="0"
     style="fill:#333333;fill-rule:evenodd;stroke:#000000;stroke-width:6;stroke-linejoin:bevel;filter:url(#a)"
     sodipodi:nodetypes="aaaaaaaaaaaaaaaaaccccc"
     transform="matrix(0.81354378,0,0,0.81441091,18.650455,18.423868)" />
</svg>
